<svg width="33" height="32" viewBox="0 0 33 32" fill="none" xmlns="http://www.w3.org/2000/svg">
<g filter="url(#filter0_i_1410_1451)">
<path d="M15.2427 0.807813C15.7413 -0.26927 17.2587 -0.269272 17.7573 0.807811L19.0867 3.67994C19.4403 4.44382 20.3775 4.72158 21.0841 4.27191L23.7409 2.58121C24.7372 1.94718 26.0138 2.77525 25.8563 3.95341L25.4363 7.09508C25.3246 7.93066 25.9642 8.67575 26.7995 8.68306L29.9401 8.71057C31.1179 8.72088 31.7483 10.1141 30.9847 11.0193L28.9487 13.4331C28.4071 14.075 28.5461 15.0509 29.2449 15.5129L31.8722 17.2499C32.8575 17.9012 32.6416 19.4173 31.5144 19.7621L28.5087 20.6816C27.7092 20.9262 27.3035 21.823 27.6439 22.5929L28.9238 25.4879C29.4037 26.5736 28.41 27.7311 27.2771 27.4061L24.256 26.5394C23.4525 26.3089 22.6308 26.8419 22.5047 27.6754L22.0308 30.8092C21.8531 31.9844 20.3971 32.416 19.6181 31.5243L17.5409 29.1466C16.9884 28.5142 16.0116 28.5142 15.4591 29.1466L13.3819 31.5243C12.6029 32.416 11.1469 31.9844 10.9692 30.8092L10.4953 27.6754C10.3692 26.8419 9.54751 26.3089 8.74401 26.5394L5.72294 27.4061C4.58999 27.7311 3.59628 26.5736 4.07625 25.4879L5.35612 22.5929C5.69652 21.823 5.29076 20.9262 4.49134 20.6816L1.48563 19.7621C0.358443 19.4173 0.142488 17.9012 1.12777 17.2499L3.75508 15.5129C4.45386 15.0509 4.59287 14.075 4.05134 13.4331L2.01527 11.0193C1.25172 10.1141 1.88209 8.72088 3.05986 8.71057L6.20047 8.68306C7.03577 8.67575 7.67541 7.93066 7.5637 7.09508L7.14372 3.95341C6.98622 2.77525 8.26278 1.94718 9.2591 2.58121L11.9159 4.27191C12.6225 4.72158 13.5597 4.44382 13.9133 3.67994L15.2427 0.807813Z" fill="url(#paint0_radial_1410_1451)"/>
<path d="M10.5 15.2501C10.5 14.0075 11.5073 13.0002 12.7499 13.0002C13.9926 13.0002 14.9999 14.0075 14.9999 15.2501V19.75C14.9999 20.9926 13.9926 22 12.7499 22C11.5073 22 10.5 20.9926 10.5 19.75V15.2501Z" fill="#171717"/>
<path d="M18.0001 12.2499C18.0001 11.0073 19.0074 10 20.25 10C21.4927 10 22.5 11.0073 22.5 12.2499V16.7498C22.5 17.9925 21.4927 18.9998 20.25 18.9998C19.0074 18.9998 18.0001 17.9925 18.0001 16.7498V12.2499Z" fill="#171717"/>
</g>
<g filter="url(#filter1_i_1410_1451)">
<path fill-rule="evenodd" clip-rule="evenodd" d="M21.75 4C25.4779 4 28.5 7.02208 28.5 10.75V15.6591C28.5 16.6758 27.6758 17.5 26.6591 17.5C25.6424 17.5 24.8182 16.6758 24.8182 15.6591V10.75C24.8182 9.05549 23.4445 7.68182 21.75 7.68182L19.8409 7.68182C18.8242 7.68182 18 6.85761 18 5.84091C18 4.8242 18.8242 4 19.8409 4L21.75 4Z" fill="url(#paint1_linear_1410_1451)"/>
<path fill-rule="evenodd" clip-rule="evenodd" d="M11.25 28C7.52208 28 4.5 24.9779 4.5 21.25L4.5 16.3409C4.5 15.3242 5.3242 14.5 6.34091 14.5C7.35762 14.5 8.18182 15.3242 8.18182 16.3409L8.18182 21.25C8.18182 22.9445 9.55549 24.3182 11.25 24.3182H13.1591C14.1758 24.3182 15 25.1424 15 26.1591C15 27.1758 14.1758 28 13.1591 28H11.25Z" fill="url(#paint2_linear_1410_1451)"/>
</g>
<defs>
<filter id="filter0_i_1410_1451" x="0.5" y="0" width="32" height="32" filterUnits="userSpaceOnUse" color-interpolation-filters="sRGB">
<feFlood flood-opacity="0" result="BackgroundImageFix"/>
<feBlend mode="normal" in="SourceGraphic" in2="BackgroundImageFix" result="shape"/>
<feColorMatrix in="SourceAlpha" type="matrix" values="0 0 0 0 0 0 0 0 0 0 0 0 0 0 0 0 0 0 127 0" result="hardAlpha"/>
<feOffset/>
<feGaussianBlur stdDeviation="1"/>
<feComposite in2="hardAlpha" operator="arithmetic" k2="-1" k3="1"/>
<feColorMatrix type="matrix" values="0 0 0 0 0 0 0 0 0 0 0 0 0 0 0 0 0 0 0.25 0"/>
<feBlend mode="normal" in2="shape" result="effect1_innerShadow_1410_1451"/>
</filter>
<filter id="filter1_i_1410_1451" x="4.5" y="4" width="24" height="24" filterUnits="userSpaceOnUse" color-interpolation-filters="sRGB">
<feFlood flood-opacity="0" result="BackgroundImageFix"/>
<feBlend mode="normal" in="SourceGraphic" in2="BackgroundImageFix" result="shape"/>
<feColorMatrix in="SourceAlpha" type="matrix" values="0 0 0 0 0 0 0 0 0 0 0 0 0 0 0 0 0 0 127 0" result="hardAlpha"/>
<feOffset/>
<feGaussianBlur stdDeviation="1"/>
<feComposite in2="hardAlpha" operator="arithmetic" k2="-1" k3="1"/>
<feColorMatrix type="matrix" values="0 0 0 0 0 0 0 0 0 0 0 0 0 0 0 0 0 0 0.25 0"/>
<feBlend mode="normal" in2="shape" result="effect1_innerShadow_1410_1451"/>
</filter>
<radialGradient id="paint0_radial_1410_1451" cx="0" cy="0" r="1" gradientUnits="userSpaceOnUse" gradientTransform="translate(16.5 16) rotate(90) scale(16 16)">
<stop stop-color="#FB923C"/>
<stop offset="0.677083" stop-color="#FDE68A"/>
</radialGradient>
<linearGradient id="paint1_linear_1410_1451" x1="16.5" y1="4" x2="16.5" y2="28" gradientUnits="userSpaceOnUse">
<stop stop-color="#4ADE80"/>
<stop offset="1" stop-color="#34D399"/>
</linearGradient>
<linearGradient id="paint2_linear_1410_1451" x1="16.5" y1="4" x2="16.5" y2="28" gradientUnits="userSpaceOnUse">
<stop stop-color="#4ADE80"/>
<stop offset="1" stop-color="#34D399"/>
</linearGradient>
</defs>
</svg>
